<svg width="34" height="43" viewBox="0 0 34 43" fill="none" xmlns="http://www.w3.org/2000/svg">
<g clip-path="url(#clip0_1942_8074)">
<path d="M1.16847 18.7902C2.61558 22.3457 4.06339 25.8997 5.5119 29.4524C10.5648 33.0997 13.602 36.8418 15 39.5C15.7664 40.9733 16 42.9826 17.5442 42.9915C19 43 19.4063 40.8007 20 39.5C21.3306 36.5682 24.2373 32.5188 29.5344 28.4127C30.4678 26.5606 31.4012 24.7085 32.3346 22.8564L33.2652 18.0473C32.8862 17.8242 32.7915 17.5296 32.9073 17.4159C33.0231 17.3023 33.2694 17.3275 33.5389 17.4159H0.46106L1.16847 18.7902Z" fill="#FFE685"/>
<path d="M16.9989 33.9858C26.3872 33.9858 33.9979 26.3778 33.9979 16.9929C33.9979 7.60798 26.3872 0 16.9989 0C7.61069 0 0 7.60798 0 16.9929C0 26.3778 7.61069 33.9858 16.9989 33.9858Z" fill="#FFCB00"/>
<path d="M16.999 30.6458C24.5419 30.6458 30.6567 24.5332 30.6567 16.9929C30.6567 9.45267 24.5419 3.34009 16.999 3.34009C9.45606 3.34009 3.34131 9.45267 3.34131 16.9929C3.34131 24.5332 9.45606 30.6458 16.999 30.6458Z" fill="white"/>
<path d="M21.7866 27.3202C22.5778 26.9929 23.3322 26.583 24.0373 26.0974C24.0246 25.8385 24.0141 25.5775 24.0015 25.3187C23.996 25.2403 24.0171 25.1623 24.0614 25.0974C24.1057 25.0324 24.1707 24.9844 24.2457 24.9609C24.3803 24.9158 24.4971 24.8291 24.5793 24.7134C24.6614 24.5976 24.7046 24.4588 24.7026 24.3169C24.6857 23.2119 24.6815 22.1049 24.6794 20.9999C24.6794 19.4699 24.6794 17.9419 24.6794 16.4139H24.6331C24.6331 16.1508 24.6331 15.8899 24.6331 15.6289C24.6134 13.5832 24.5931 11.5389 24.572 9.49595C24.572 9.115 24.5573 8.73196 24.5468 8.35102C24.5468 8.19107 24.4352 8.07321 24.2268 8.03111C24.0587 7.99571 23.8864 7.98438 23.7151 7.99744C23.4501 8.02765 23.1994 8.1336 22.993 8.30261C22.6993 8.52898 22.4519 8.80981 22.2645 9.12974C21.8147 9.89867 21.4833 10.7309 21.2813 11.5985C20.842 13.3227 20.5657 15.0843 20.456 16.8601C20.3549 18.245 20.296 19.6298 20.2665 21.0168C20.2476 21.9344 20.2897 22.8562 20.3591 23.7718C20.4055 24.3842 20.8013 24.862 21.6224 25.1103C21.7082 25.1345 21.7828 25.1881 21.8329 25.2618C21.8649 25.3419 21.8751 25.4291 21.8624 25.5144L21.7866 27.3202Z" fill="#374151"/>
<path d="M13.8492 27.7978C13.8008 26.655 13.8155 25.5016 13.8492 24.342C13.8892 23.2896 14.224 22.2836 14.9019 21.6185C16.3041 20.24 16.7652 18.3353 16.8431 16.258C16.921 13.9113 16.8726 11.5562 16.881 9.20745C16.881 8.51292 16.6704 7.99097 16.0809 8.02464C15.5504 8.05411 15.3567 8.5508 15.3588 9.19482C15.3588 10.8785 15.3588 12.5412 15.3588 14.2144C15.3588 14.9047 15.3019 15.5887 14.6387 15.6182C13.9124 15.6498 13.824 14.9489 13.8303 14.2039C13.845 12.5707 13.8303 10.9354 13.8303 9.30216C13.8303 8.63288 13.6997 8.03937 13.1018 8.02675C12.4449 8.0057 12.2975 8.61605 12.3039 9.33794C12.3165 10.8912 12.3039 12.4444 12.3039 13.9997C12.3039 14.7258 12.3691 15.5993 11.5691 15.6119C10.6996 15.6245 10.7838 14.7027 10.7838 13.9408C10.7838 12.3476 10.7838 10.7544 10.7838 9.16115C10.7838 8.67287 10.6638 8.2793 10.3101 8.08989C9.95635 7.90047 9.64686 7.96782 9.47422 8.47083C9.44685 8.52555 9.41737 8.5508 9.38789 8.55501C9.35842 8.55922 9.38789 8.57606 9.38789 8.58869C9.32052 10.6239 9.51422 12.6654 9.28894 14.6922V17.0872C9.34579 19.0951 9.97951 20.7156 11.1838 22.05C11.8512 22.7824 12.026 23.8768 12.0596 24.9965C12.0891 25.7226 12.0912 26.4424 12.0596 27.1559C12.6382 27.4169 13.2366 27.6316 13.8492 27.7978Z" fill="#374151"/>
</g>
<defs>
<clipPath id="clip0_1942_8074">
<rect width="34" height="43" fill="white"/>
</clipPath>
</defs>
</svg>
